<svg width="132" height="30" viewBox="0 0 132 30" fill="none" xmlns="http://www.w3.org/2000/svg">
<g clip-path="url(#clip0_282_115)">
<path d="M45.4416 5.11216C46.4368 5.69979 47.0618 6.39273 47.3098 7.18417V4.43281H51.0462V22.0959H47.3098V19.1747C47.1501 19.674 46.824 20.1665 46.3247 20.6522C45.8254 21.138 45.1936 21.5422 44.4225 21.8581C43.6515 22.174 42.8159 22.3336 41.909 22.3336C40.5944 22.3336 39.2935 21.9872 38.0027 21.2976C36.7119 20.6081 35.6488 19.5755 34.8098 18.2066C33.9708 16.8377 33.553 15.1903 33.553 13.2643C33.553 11.3384 33.9708 9.72493 34.8098 8.35604C35.6488 6.98716 36.7119 5.95455 38.0027 5.26501C39.2935 4.57547 40.5944 4.229 41.909 4.229C43.2235 4.229 44.4463 4.52452 45.4416 5.11216ZM40.0238 8.13525C39.2187 8.58702 38.5632 9.25618 38.0537 10.1393C37.5441 11.0225 37.2894 12.0653 37.2894 13.2643C37.2894 14.4634 37.5441 15.5401 38.0537 16.4233C38.5632 17.3064 39.2153 17.9756 40.0068 18.4274C40.7982 18.8791 41.627 19.1067 42.4864 19.1067C43.3458 19.1067 44.1576 18.8961 44.9151 18.4783C45.6725 18.0605 46.2907 17.4151 46.7663 16.5422C47.2418 15.6692 47.4796 14.5789 47.4796 13.2643C47.4796 11.9498 47.2418 10.8594 46.7663 9.98648C46.2907 9.11352 45.6725 8.47493 44.9151 8.06732C44.1576 7.65971 43.3458 7.45591 42.4864 7.45591C41.627 7.45591 40.8288 7.68349 40.0238 8.13525Z" fill="white"/>
<path d="M18.4851 23.2202C17.7141 27.3065 13.9029 30.0001 9.31733 30.0001C4.73173 30.0001 0.856053 27.6258 0.12915 23.2202H3.93689C4.64002 25.102 6.46067 26.7732 9.31733 26.7732C12.174 26.7732 13.9403 25.102 14.6774 23.2202H18.4851Z" fill="white"/>
<path d="M67.2147 5.04395C68.2337 5.56365 69.0557 6.39585 69.6773 7.54055C70.2989 8.68525 70.6114 10.1289 70.6114 11.8714V22.0956H66.875V12.0752C66.875 10.4685 66.5353 9.29666 65.856 8.55957C65.1766 7.82248 64.2493 7.45563 63.0707 7.45563C62.1637 7.45563 61.3383 7.68661 60.591 8.15196C59.8438 8.61731 59.2391 9.18797 58.7738 9.86731C58.3084 10.5467 57.9993 11.2022 57.8397 11.8374V22.0956H54.1033V4.43253H57.8397V8.16894C57.9756 7.71718 58.305 7.18389 58.8247 6.57248C59.3444 5.96106 60.0408 5.42438 60.9137 4.95903C61.7867 4.49367 62.7751 4.2627 63.8859 4.2627C65.0849 4.2627 66.1957 4.52424 67.2147 5.04395Z" fill="white"/>
<path d="M81.7528 4.43274V7.48981H78.0164V22.0958H74.28V7.48981H71.9702V4.43274H74.28V1.37568L78.0164 0V3.32201L75.2107 4.43274H81.7528Z" fill="white"/>
<path d="M96.8342 5.26495C98.125 5.95448 99.1882 6.98709 100.027 8.35598C100.866 9.72486 101.284 11.3621 101.284 13.2643C101.284 15.1664 100.866 16.8376 100.027 18.2065C99.1882 19.5754 98.125 20.608 96.8342 21.2976C95.5435 21.9871 94.2425 22.3336 92.928 22.3336C92.0211 22.3336 91.1855 22.1739 90.4144 21.858C89.6434 21.5421 89.0116 21.1379 88.5122 20.6522C88.0129 20.1664 87.6868 19.6739 87.5272 19.1746V22.0958H83.7908V0H87.5272V7.18071C87.7751 6.38927 88.4001 5.69633 89.3954 5.1087C90.3906 4.52106 91.5693 4.22554 92.928 4.22554C94.2867 4.22554 95.5435 4.57201 96.8342 5.26155V5.26495ZM94.8302 18.4273C95.6216 17.9755 96.2738 17.3064 96.7833 16.4232C97.2928 15.5401 97.5476 14.4871 97.5476 13.2643C97.5476 12.0414 97.2928 11.0224 96.7833 10.1393C96.2738 9.25611 95.6182 8.58696 94.8132 8.13519C94.0082 7.68342 93.1896 7.45584 92.3506 7.45584C91.5116 7.45584 90.6794 7.65965 89.9219 8.06726C89.1644 8.47486 88.5462 9.11345 88.0707 9.98641C87.5951 10.8594 87.3573 11.9531 87.3573 13.2643C87.3573 14.5754 87.5951 15.6692 88.0707 16.5421C88.5462 17.4151 89.1644 18.0605 89.9219 18.4783C90.6794 18.8961 91.4912 19.1067 92.3506 19.1067C93.2099 19.1067 94.0387 18.8791 94.8302 18.4273Z" fill="white"/>
<path d="M115.839 5.26501C117.208 5.95455 118.353 6.98716 119.27 8.35604C120.187 9.72493 120.645 11.3723 120.645 13.2983C120.645 15.2242 120.187 16.8717 119.27 18.2406C118.353 19.6094 117.208 20.6353 115.839 21.3146C114.47 21.9939 113.128 22.3336 111.814 22.3336C110.499 22.3336 109.158 21.9939 107.789 21.3146C106.417 20.6353 105.275 19.6094 104.358 18.2406C103.441 16.8717 102.982 15.2242 102.982 13.2983C102.982 11.3723 103.441 9.72493 104.358 8.35604C105.275 6.98716 106.42 5.95455 107.789 5.26501C109.158 4.57547 110.499 4.229 111.814 4.229C113.128 4.229 114.47 4.57547 115.839 5.26501ZM109.385 8.15224C108.604 8.59381 107.965 9.24938 107.466 10.1223C106.967 10.9953 106.719 12.0517 106.719 13.2983C106.719 14.5449 106.967 15.5673 107.466 16.4403C107.965 17.3132 108.604 17.9688 109.385 18.4104C110.167 18.852 110.975 19.0728 111.814 19.0728C112.653 19.0728 113.461 18.852 114.243 18.4104C115.024 17.9688 115.662 17.3132 116.162 16.4403C116.661 15.5673 116.909 14.5211 116.909 13.2983C116.909 12.0755 116.661 10.9953 116.162 10.1223C115.662 9.24938 115.024 8.59381 114.243 8.15224C113.461 7.71066 112.653 7.48987 111.814 7.48987C110.975 7.48987 110.167 7.71066 109.385 8.15224Z" fill="white"/>
<path d="M124.735 4.43274L127.541 3.32201V0L123.804 1.37568V4.43274H121.495V7.48981H123.804V22.0958H127.541V7.48981H131.277V4.43274H124.735Z" fill="white"/>
<path d="M16.7323 7.24524H13.0503L15.6454 6.21943C15.6454 6.21943 15.6352 6.20924 15.6284 6.20245L17.3132 5.53668V0L13.5768 1.37228V5.03057C12.303 4.50408 10.8526 4.22894 9.31726 4.22894C4.1712 4.22894 0 7.45584 0 12.5713C0 17.9755 4.1712 20.9137 9.31726 20.9137C14.4633 20.9137 18.6345 17.5204 18.6345 12.5713C18.6345 10.4042 17.928 8.60734 16.7323 7.24524ZM9.31726 17.6868C5.57065 17.6868 3.60394 15.3974 3.60394 12.5713C3.60394 9.74524 5.59443 7.45584 9.31726 7.45584C13.0401 7.45584 15.0306 9.74524 15.0306 12.5713C15.0306 15.3974 12.911 17.6868 9.31726 17.6868Z" fill="white"/>
<path d="M33.0435 4.3646V7.82927C32.7039 7.78511 32.2045 7.76134 31.549 7.76134C29.9185 7.76134 28.5089 8.30481 27.32 9.39177C26.1312 10.4787 25.4348 11.9393 25.231 13.7736V22.0956H21.4946V4.43253H25.231V9.96922C25.4348 8.33878 26.0904 6.98009 27.2012 5.89313C28.3119 4.80617 29.7725 4.2627 31.5829 4.2627C32.1502 4.2627 32.6359 4.29666 33.0435 4.3646Z" fill="white"/>
</g>
<defs>
<clipPath id="clip0_282_115">
<rect width="131.277" height="30" fill="white"/>
</clipPath>
</defs>
</svg>
